<?xml version="1.0" encoding="UTF-8" standalone="no"?>
<!-- Created with Inkscape (http://www.inkscape.org/) -->

<svg
   version="1.1"
   id="svg2"
   width="28"
   height="28"
   viewBox="0 0 28 28"
   sodipodi:docname="web_blue_logo_only.svg"
   inkscape:version="1.2.1 (9c6d41e410, 2022-07-14)"
   xmlns:inkscape="http://www.inkscape.org/namespaces/inkscape"
   xmlns:sodipodi="http://sodipodi.sourceforge.net/DTD/sodipodi-0.dtd"
   xmlns="http://www.w3.org/2000/svg"
   xmlns:svg="http://www.w3.org/2000/svg">
  <defs
     id="defs6">
    <clipPath
       clipPathUnits="userSpaceOnUse"
       id="clipPath20">
      <path
         d="M 0,10 H 48 V 0 H 0 Z"
         id="path18" />
    </clipPath>
    <clipPath
       clipPathUnits="userSpaceOnUse"
       id="clipPath70">
      <path
         d="M 0,10 H 48 V 0 H 0 Z"
         id="path68" />
    </clipPath>
  </defs>
  <sodipodi:namedview
     id="namedview4"
     pagecolor="#ffffff"
     bordercolor="#000000"
     borderopacity="0.25"
     inkscape:showpageshadow="2"
     inkscape:pageopacity="0.0"
     inkscape:pagecheckerboard="0"
     inkscape:deskcolor="#d1d1d1"
     showgrid="false"
     inkscape:zoom="20.40625"
     inkscape:cx="28.667688"
     inkscape:cy="6.7136294"
     inkscape:window-width="3440"
     inkscape:window-height="1377"
     inkscape:window-x="-8"
     inkscape:window-y="-8"
     inkscape:window-maximized="1"
     inkscape:current-layer="g10">
    <inkscape:page
       x="0"
       y="0"
       id="page8"
       width="28"
       height="28" />
    <inkscape:page
       x="84"
       y="0"
       id="page58"
       width="64"
       height="13.333333" />
  </sodipodi:namedview>
  <g
     id="g10"
     inkscape:groupmode="layer"
     inkscape:label="Page 1"
     transform="matrix(1.3333333,0,0,-1.3333333,0,13.333333)">
    <g
       id="g14"
       transform="translate(-0.03675345,-5.9173049)">
      <g
         id="g16"
         clip-path="url(#clipPath20)">
        <g
           id="g26"
           transform="translate(46.7021,7.6357)" />
        <g
           id="g40"
           transform="translate(13.5337,8.2563)">
          <path
             d="m 0,0 h -4.581 c 0.341,-0.219 0.593,-0.52 0.72,-0.905 h 3.81 c 0.215,0.003 0.398,-0.026 0.55,-0.085 0.152,-0.06 0.269,-0.147 0.35,-0.262 0.083,-0.115 0.124,-0.256 0.124,-0.421 0,-0.171 -0.041,-0.316 -0.124,-0.436 C 0.768,-2.228 0.651,-2.319 0.499,-2.382 0.347,-2.444 0.164,-2.476 -0.051,-2.476 H -1.603 C -1.63,-2.517 -1.659,-2.557 -1.69,-2.596 -1.74,-2.658 -1.793,-2.717 -1.852,-2.772 l 0.002,-0.003 c 0.122,-0.087 0.23,-0.186 0.325,-0.297 0.075,-0.09 0.142,-0.187 0.199,-0.291 h 1.275 c 0.262,0 0.487,-0.031 0.674,-0.098 0.186,-0.068 0.33,-0.164 0.429,-0.29 0.022,-0.028 0.041,-0.055 0.057,-0.084 l 0.369,0.837 c -0.154,0.081 -0.328,0.138 -0.522,0.172 0.217,0.056 0.404,0.145 0.56,0.269 0.134,0.107 0.241,0.234 0.323,0.381 l 0.091,0.209 c 0.049,0.145 0.074,0.302 0.076,0.473 C 2.004,-1.183 1.921,-0.915 1.761,-0.693 1.599,-0.471 1.368,-0.3 1.069,-0.181 0.771,-0.062 0.414,-0.002 0,0"
             style="fill:#004080;fill-opacity:1;fill-rule:nonzero;stroke:none"
             id="path42" />
        </g>
        <g
           id="g44"
           transform="translate(14.9331,4.1328)">
          <path
             d="M 0,0 1.814,4.131 H 2.847 L 5.485,-1.844 H 4.435 L 2.362,3.038 1.131,0.125 C 0.811,-0.631 0.667,-1.315 -0.176,-1.653 -0.501,-1.784 -0.889,-1.852 -1.34,-1.852 h -2.066 c 0.06,0.037 0.117,0.075 0.172,0.116 0.157,0.118 0.292,0.255 0.402,0.409 l 0.002,0.002 c 0.084,0.118 0.153,0.244 0.206,0.378 h 0.463 0.71 c 0.263,-0.002 0.488,0.03 0.675,0.097 C -0.305,-0.681 -0.191,-0.435 0,0"
             style="fill:#004080;fill-opacity:1;fill-rule:nonzero;stroke:none"
             id="path46" />
        </g>
        <g
           id="g48"
           transform="translate(1.9951,5.6372)">
          <path
             d="m 0,0 c -0.02,0.027 -0.042,0.052 -0.066,0.076 l -0.001,0.001 c -0.135,0.135 -0.322,0.219 -0.528,0.219 -0.206,0 -0.393,-0.084 -0.529,-0.219 -0.135,-0.136 -0.219,-0.323 -0.219,-0.529 0,-0.205 0.084,-0.392 0.219,-0.528 h 0.001 v -0.001 c 0.136,-0.136 0.323,-0.22 0.528,-0.22 0.207,0 0.394,0.085 0.529,0.22 0.024,0.024 0.047,0.049 0.067,0.076 H 2.646 4.498 5.354 L 4.992,0 H 4.881 3.892 Z m -0.595,-0.239 c -0.058,0 -0.112,-0.024 -0.151,-0.063 -0.038,-0.038 -0.062,-0.091 -0.062,-0.15 0,-0.06 0.024,-0.113 0.061,-0.151 l 0.001,-0.001 c 0.038,-0.038 0.092,-0.061 0.151,-0.061 0.059,0 0.113,0.024 0.151,0.062 0.038,0.039 0.063,0.092 0.063,0.151 0,0.059 -0.024,0.113 -0.063,0.151 -0.038,0.038 -0.092,0.062 -0.151,0.062 M 1.578,1.332 C 1.519,1.332 1.465,1.308 1.427,1.269 1.389,1.23 1.365,1.177 1.365,1.118 1.365,1.059 1.388,1.005 1.426,0.968 L 1.427,0.966 C 1.465,0.929 1.518,0.905 1.578,0.905 c 0.059,0 0.112,0.024 0.151,0.063 0.038,0.038 0.062,0.092 0.062,0.15 0,0.06 -0.024,0.113 -0.062,0.152 C 1.69,1.308 1.637,1.332 1.578,1.332 M 1.963,-2.452 H 1.358 C 1.338,-2.478 1.315,-2.503 1.292,-2.528 1.156,-2.664 0.969,-2.747 0.763,-2.747 c -0.206,0 -0.392,0.083 -0.528,0.219 l -10e-4,10e-4 v 0 c -0.136,0.136 -0.219,0.322 -0.219,0.528 0,0.207 0.083,0.394 0.219,0.529 0.135,0.136 0.322,0.22 0.529,0.22 0.206,0 0.392,-0.084 0.528,-0.22 L 1.292,-1.471 C 1.315,-1.495 1.337,-1.52 1.358,-1.546 H 2.362 3.371 3.379 L 3,-2.443 2.997,-2.452 2.614,-3.356 H 1.563 Z M 6.227,-2.088 4.687,1.543 4.316,0.666 H 3.84 3.339 2.174 C 2.153,0.639 2.131,0.613 2.107,0.589 1.972,0.454 1.785,0.37 1.578,0.37 1.373,0.37 1.186,0.454 1.05,0.589 L 1.049,0.59 v 0 C 0.914,0.727 0.83,0.913 0.83,1.118 c 0,0.207 0.084,0.394 0.219,0.529 0.136,0.136 0.323,0.219 0.529,0.219 0.206,0 0.392,-0.083 0.527,-0.219 L 2.107,1.646 C 2.13,1.623 2.152,1.597 2.173,1.571 H 3.739 L 4.201,2.619 H 5.234 L 7.302,-2.088 Z M 0.763,-1.786 C 0.704,-1.786 0.65,-1.81 0.612,-1.848 0.573,-1.886 0.55,-1.94 0.55,-1.999 c 0,-0.059 0.023,-0.113 0.061,-0.151 h 0.001 c 0.038,-0.038 0.091,-0.061 0.151,-0.061 0.058,0 0.112,0.023 0.151,0.061 0.038,0.039 0.062,0.092 0.062,0.151 0,0.059 -0.024,0.113 -0.062,0.151 -0.039,0.039 -0.092,0.062 -0.151,0.062"
             style="fill:#004080;fill-opacity:1;fill-rule:evenodd;stroke:none"
             id="path50" />
        </g>
        <g
           id="g52"
           transform="translate(10.6895,6.9502)">
          <path
             d="m 0,0 c 0.06,-0.104 0.089,-0.227 0.089,-0.367 0,-0.171 -0.041,-0.316 -0.123,-0.436 -0.082,-0.119 -0.198,-0.21 -0.35,-0.273 -0.153,-0.062 -0.336,-0.093 -0.551,-0.093 H -1.703 -1.93 l 0.388,-0.888 h 0.607 c 0.263,0.003 0.488,-0.03 0.674,-0.098 0.187,-0.067 0.33,-0.164 0.43,-0.29 0.1,-0.127 0.149,-0.28 0.151,-0.457 -0.002,-0.185 -0.051,-0.343 -0.151,-0.472 -0.1,-0.13 -0.243,-0.227 -0.43,-0.293 -0.186,-0.067 -0.411,-0.1 -0.674,-0.098 h -0.71 -0.826 -2.778 l -0.383,-0.904 h 4.808 c 0.451,0 0.839,0.067 1.164,0.198 0.324,0.13 0.573,0.317 0.748,0.56 0.175,0.245 0.263,0.538 0.265,0.881 -0.002,0.268 -0.053,0.508 -0.154,0.718 -0.101,0.209 -0.248,0.383 -0.438,0.518 -0.191,0.137 -0.42,0.228 -0.689,0.274 0.218,0.056 0.404,0.145 0.561,0.27 0.156,0.125 0.277,0.277 0.361,0.458 0.084,0.18 0.127,0.381 0.128,0.604 0,0.064 -0.004,0.127 -0.011,0.188 z m -0.883,1.306 h -2.129 l 0.396,-0.905 h 0.847 0.066 0.768 0.06 H 1 C 0.967,0.476 0.926,0.546 0.877,0.613 0.715,0.835 0.485,1.006 0.186,1.125 -0.112,1.245 -0.47,1.304 -0.883,1.306"
             style="fill:#004080;fill-opacity:1;fill-rule:nonzero;stroke:none"
             id="path54" />
        </g>
      </g>
    </g>
  </g>
  <g
     id="g60"
     inkscape:groupmode="layer"
     inkscape:label="Page 2"
     transform="matrix(1.3333333,0,0,-1.3333333,84,13.333333)">
    <path
       d="m 26.745,5.374 h 0.457 v 2.391 h -0.457 z m -2.061,0.897 0.423,1.004 0.417,-1.004 z M 25.9,5.374 h 0.492 l -1.036,2.39 h -0.474 l -1.048,-2.39 h 0.474 l 0.212,0.505 h 1.168 z"
       style="fill:#004080;fill-opacity:1;fill-rule:nonzero;stroke:none"
       id="path62" />
    <g
       id="g64">
      <g
         id="g66"
         clip-path="url(#clipPath70)">
        <g
           id="g72"
           transform="translate(28.3154,7.2144)">
          <path
             d="M 0,0 V 0.184 C 0,0.243 0.013,0.288 0.037,0.319 0.062,0.35 0.1,0.366 0.149,0.366 0.2,0.366 0.239,0.35 0.265,0.319 0.29,0.288 0.302,0.243 0.302,0.184 V 0 Z M 0.68,0.533 0.409,0.353 C 0.387,0.406 0.354,0.446 0.309,0.473 0.264,0.501 0.209,0.515 0.145,0.515 0.085,0.515 0.033,0.502 -0.008,0.476 -0.05,0.451 -0.081,0.413 -0.104,0.364 -0.125,0.314 -0.136,0.254 -0.136,0.184 v -0.34 H 0.68 V 0 H 0.439 v 0.184 0.015 c 0,0.005 0,0.009 -0.001,0.014 L 0.68,0.354 Z m -0.681,-1.282 c 0,0.039 0.007,0.074 0.022,0.106 0.012,0.033 0.032,0.062 0.056,0.087 0.026,0.025 0.055,0.045 0.087,0.059 0.033,0.014 0.069,0.021 0.107,0.022 C 0.311,-0.476 0.347,-0.483 0.38,-0.497 0.413,-0.511 0.442,-0.531 0.468,-0.556 0.492,-0.581 0.512,-0.61 0.525,-0.643 0.54,-0.675 0.547,-0.71 0.547,-0.749 0.547,-0.786 0.54,-0.822 0.525,-0.855 0.512,-0.888 0.492,-0.918 0.468,-0.943 0.442,-0.969 0.413,-0.989 0.38,-1.004 0.347,-1.018 0.311,-1.025 0.271,-1.026 c -0.038,0.001 -0.074,0.008 -0.107,0.022 -0.032,0.015 -0.061,0.035 -0.087,0.06 -0.024,0.026 -0.044,0.055 -0.056,0.089 -0.015,0.033 -0.022,0.069 -0.022,0.106 m -0.14,-0.001 c 0,-0.05 0.007,-0.097 0.02,-0.14 0.014,-0.044 0.033,-0.084 0.058,-0.12 0.024,-0.036 0.053,-0.067 0.087,-0.093 0.035,-0.026 0.073,-0.047 0.115,-0.061 0.042,-0.014 0.086,-0.022 0.132,-0.022 0.047,0 0.092,0.008 0.134,0.022 0.041,0.014 0.08,0.035 0.115,0.061 0.034,0.026 0.064,0.057 0.088,0.093 0.026,0.036 0.044,0.076 0.058,0.12 0.014,0.043 0.021,0.09 0.021,0.14 0,0.049 -0.007,0.096 -0.021,0.139 -0.014,0.044 -0.032,0.084 -0.058,0.12 C 0.584,-0.455 0.554,-0.424 0.52,-0.397 0.485,-0.372 0.446,-0.351 0.405,-0.337 0.363,-0.323 0.318,-0.316 0.271,-0.315 0.225,-0.316 0.181,-0.323 0.139,-0.337 0.097,-0.351 0.06,-0.372 0.025,-0.397 -0.009,-0.424 -0.038,-0.455 -0.063,-0.491 -0.088,-0.527 -0.107,-0.567 -0.12,-0.611 -0.134,-0.654 -0.141,-0.701 -0.141,-0.75 m 0.005,-1.073 H 0.68 v 0.156 H 0.357 v 0.37 H 0.221 v -0.37 H 0 v 0.406 l -0.136,0.002 z"
             style="fill:#004080;fill-opacity:1;fill-rule:nonzero;stroke:none"
             id="path74" />
        </g>
        <g
           id="g76"
           transform="translate(47.2021,7.1357)">
          <path
             d="M 0,0 0.185,0.396 C 0.107,0.447 0.022,0.491 -0.07,0.529 -0.164,0.566 -0.262,0.596 -0.365,0.617 -0.469,0.638 -0.573,0.648 -0.68,0.649 -0.814,0.649 -0.937,0.632 -1.046,0.601 -1.155,0.569 -1.25,0.523 -1.328,0.463 -1.407,0.404 -1.468,0.333 -1.511,0.248 -1.553,0.164 -1.574,0.07 -1.574,-0.034 c 0.001,-0.106 0.018,-0.195 0.054,-0.27 0.037,-0.073 0.085,-0.135 0.146,-0.186 0.062,-0.05 0.13,-0.091 0.206,-0.124 0.076,-0.032 0.154,-0.061 0.235,-0.085 0.081,-0.024 0.161,-0.047 0.236,-0.069 0.077,-0.022 0.144,-0.047 0.206,-0.075 0.061,-0.028 0.109,-0.062 0.145,-0.102 0.036,-0.042 0.055,-0.094 0.056,-0.155 0,-0.056 -0.017,-0.104 -0.05,-0.142 -0.033,-0.039 -0.079,-0.07 -0.14,-0.09 -0.061,-0.021 -0.134,-0.031 -0.22,-0.031 -0.087,0 -0.178,0.014 -0.274,0.043 -0.095,0.028 -0.191,0.068 -0.287,0.12 -0.093,0.053 -0.182,0.116 -0.266,0.189 l -0.191,-0.386 c 0.086,-0.077 0.183,-0.144 0.291,-0.201 0.108,-0.057 0.223,-0.101 0.345,-0.133 0.121,-0.032 0.247,-0.048 0.375,-0.048 0.132,0 0.254,0.015 0.364,0.047 0.112,0.032 0.208,0.078 0.291,0.138 0.082,0.061 0.146,0.135 0.192,0.222 0.045,0.088 0.068,0.187 0.068,0.299 0,0.107 -0.018,0.198 -0.054,0.273 -0.036,0.075 -0.084,0.138 -0.144,0.19 -0.062,0.051 -0.13,0.094 -0.205,0.128 -0.076,0.034 -0.155,0.064 -0.236,0.088 -0.081,0.025 -0.159,0.049 -0.236,0.072 -0.075,0.023 -0.144,0.048 -0.205,0.076 -0.061,0.028 -0.109,0.062 -0.146,0.102 -0.035,0.04 -0.054,0.091 -0.054,0.151 0,0.049 0.014,0.09 0.044,0.123 0.029,0.034 0.07,0.059 0.123,0.077 0.052,0.017 0.115,0.025 0.187,0.025 0.063,0 0.133,-0.008 0.212,-0.026 C -0.428,0.189 -0.345,0.163 -0.259,0.128 -0.173,0.094 -0.086,0.051 0,0 m -2.207,0 0.184,0.396 C -2.1,0.447 -2.185,0.491 -2.278,0.529 -2.372,0.566 -2.47,0.596 -2.573,0.617 -2.676,0.638 -2.781,0.648 -2.887,0.649 -3.021,0.649 -3.144,0.632 -3.253,0.601 -3.362,0.569 -3.457,0.523 -3.535,0.463 -3.615,0.404 -3.675,0.333 -3.718,0.248 -3.76,0.164 -3.781,0.07 -3.782,-0.034 c 10e-4,-0.106 0.019,-0.195 0.055,-0.27 0.036,-0.073 0.084,-0.135 0.146,-0.186 0.06,-0.05 0.129,-0.091 0.205,-0.124 0.076,-0.032 0.155,-0.061 0.236,-0.085 0.081,-0.024 0.16,-0.047 0.236,-0.069 0.076,-0.022 0.144,-0.047 0.206,-0.075 0.06,-0.028 0.109,-0.062 0.145,-0.102 0.035,-0.042 0.054,-0.094 0.055,-0.155 0,-0.056 -0.017,-0.104 -0.05,-0.142 -0.032,-0.039 -0.078,-0.07 -0.14,-0.09 -0.06,-0.021 -0.134,-0.031 -0.219,-0.031 -0.087,0 -0.178,0.014 -0.274,0.043 -0.096,0.028 -0.192,0.068 -0.287,0.12 -0.095,0.053 -0.183,0.116 -0.266,0.189 l -0.192,-0.386 c 0.086,-0.077 0.184,-0.144 0.291,-0.201 0.109,-0.057 0.224,-0.101 0.345,-0.133 0.122,-0.032 0.247,-0.048 0.375,-0.048 0.133,0 0.254,0.015 0.365,0.047 0.112,0.032 0.208,0.078 0.29,0.138 0.082,0.061 0.147,0.135 0.192,0.222 0.045,0.088 0.068,0.187 0.069,0.299 -10e-4,0.107 -0.019,0.198 -0.055,0.273 -0.035,0.075 -0.083,0.138 -0.144,0.19 -0.061,0.051 -0.129,0.094 -0.204,0.128 -0.077,0.034 -0.156,0.064 -0.237,0.088 -0.081,0.025 -0.159,0.049 -0.235,0.072 -0.076,0.023 -0.145,0.048 -0.206,0.076 -0.061,0.028 -0.109,0.062 -0.145,0.102 -0.036,0.04 -0.054,0.091 -0.055,0.151 10e-4,0.049 0.015,0.09 0.045,0.123 0.028,0.034 0.069,0.059 0.123,0.077 0.052,0.017 0.115,0.025 0.187,0.025 0.062,0 0.133,-0.008 0.211,-0.026 C -2.635,0.189 -2.553,0.163 -2.467,0.128 -2.38,0.094 -2.294,0.051 -2.207,0 M -6.03,0.628 v -2.39 h 1.793 v 0.399 h -1.336 v 0.601 h 1.161 v 0.4 h -1.161 v 0.591 h 1.295 v 0.399 z m -2.761,0 v -2.39 h 0.447 v 1.632 l 1.23,-1.632 h 0.433 v 2.39 h -0.443 v -1.636 l -1.233,1.636 z m -1.107,-2.39 h 0.457 V 0.629 H -9.898 Z M -10.604,0 l 0.185,0.396 c -0.077,0.051 -0.162,0.095 -0.255,0.133 -0.094,0.037 -0.191,0.067 -0.295,0.088 -0.103,0.021 -0.208,0.031 -0.314,0.032 -0.135,0 -0.257,-0.017 -0.366,-0.048 -0.11,-0.032 -0.204,-0.078 -0.283,-0.138 -0.079,-0.059 -0.139,-0.13 -0.181,-0.215 -0.042,-0.084 -0.065,-0.178 -0.065,-0.282 0.001,-0.106 0.02,-0.195 0.055,-0.27 0.036,-0.073 0.084,-0.135 0.145,-0.186 0.062,-0.05 0.13,-0.091 0.207,-0.124 0.076,-0.032 0.154,-0.061 0.235,-0.085 0.082,-0.024 0.16,-0.047 0.236,-0.069 0.076,-0.022 0.145,-0.047 0.206,-0.075 0.061,-0.028 0.109,-0.062 0.145,-0.102 0.036,-0.042 0.054,-0.094 0.055,-0.155 0,-0.056 -0.016,-0.104 -0.049,-0.142 -0.033,-0.039 -0.079,-0.07 -0.14,-0.09 -0.062,-0.021 -0.135,-0.031 -0.221,-0.031 -0.087,0 -0.177,0.014 -0.273,0.043 -0.096,0.028 -0.192,0.068 -0.286,0.12 -0.095,0.053 -0.184,0.116 -0.267,0.189 l -0.191,-0.386 c 0.086,-0.077 0.183,-0.144 0.291,-0.201 0.107,-0.057 0.222,-0.101 0.344,-0.133 0.123,-0.032 0.248,-0.048 0.375,-0.048 0.132,0 0.254,0.015 0.366,0.047 0.11,0.032 0.207,0.078 0.29,0.138 0.082,0.061 0.145,0.135 0.191,0.222 0.045,0.088 0.068,0.187 0.068,0.299 0,0.107 -0.017,0.198 -0.053,0.273 -0.036,0.075 -0.084,0.138 -0.145,0.19 -0.06,0.051 -0.129,0.094 -0.205,0.128 -0.076,0.034 -0.154,0.064 -0.235,0.088 -0.081,0.025 -0.16,0.049 -0.237,0.072 -0.075,0.023 -0.143,0.048 -0.205,0.076 -0.06,0.028 -0.109,0.062 -0.145,0.102 -0.035,0.04 -0.054,0.091 -0.055,0.151 10e-4,0.049 0.016,0.09 0.044,0.123 0.029,0.034 0.07,0.059 0.123,0.077 0.053,0.017 0.115,0.025 0.188,0.025 0.062,0 0.133,-0.008 0.212,-0.026 0.078,-0.017 0.161,-0.043 0.247,-0.078 0.086,-0.034 0.173,-0.077 0.258,-0.128 m -3.757,-0.765 v 1.393 h -0.458 v -1.393 c 0.001,-0.158 0.025,-0.299 0.074,-0.424 0.05,-0.125 0.12,-0.232 0.212,-0.321 0.093,-0.088 0.205,-0.156 0.335,-0.202 0.131,-0.047 0.278,-0.07 0.441,-0.071 0.218,10e-4 0.404,0.042 0.56,0.124 0.157,0.082 0.277,0.199 0.361,0.351 0.084,0.151 0.126,0.332 0.128,0.543 v 1.393 h -0.458 v -1.393 c -10e-4,-0.129 -0.024,-0.237 -0.073,-0.328 -0.048,-0.091 -0.115,-0.159 -0.204,-0.207 -0.088,-0.049 -0.193,-0.073 -0.314,-0.074 -0.121,0.001 -0.227,0.026 -0.317,0.074 -0.091,0.049 -0.161,0.118 -0.211,0.209 -0.05,0.09 -0.075,0.199 -0.076,0.326 m -1.856,-0.601 h -0.581 v 0.632 h 0.581 c 0.098,0.001 0.181,-0.012 0.249,-0.037 0.07,-0.024 0.122,-0.06 0.159,-0.106 0.038,-0.047 0.056,-0.103 0.056,-0.168 0,-0.069 -0.018,-0.127 -0.056,-0.176 -0.037,-0.048 -0.089,-0.084 -0.159,-0.109 -0.068,-0.025 -0.151,-0.037 -0.249,-0.036 m 0,1.017 h -0.581 v 0.581 h 0.581 c 0.079,0.001 0.147,-0.01 0.203,-0.032 0.057,-0.022 0.1,-0.054 0.13,-0.096 0.03,-0.043 0.046,-0.095 0.046,-0.156 0,-0.062 -0.016,-0.115 -0.046,-0.16 -0.03,-0.044 -0.073,-0.078 -0.13,-0.101 -0.056,-0.023 -0.124,-0.036 -0.203,-0.036 m 0.024,0.977 h -1.063 v -2.39 h 1.094 c 0.183,0 0.34,0.027 0.473,0.079 0.13,0.053 0.232,0.128 0.303,0.226 0.072,0.099 0.108,0.216 0.109,0.353 -0.001,0.107 -0.022,0.202 -0.062,0.286 -0.041,0.084 -0.099,0.152 -0.175,0.207 -0.075,0.055 -0.167,0.092 -0.273,0.112 0.088,0.022 0.162,0.058 0.224,0.108 0.062,0.049 0.109,0.11 0.143,0.182 0.033,0.072 0.049,0.151 0.05,0.239 -0.001,0.124 -0.034,0.23 -0.1,0.32 -0.066,0.088 -0.161,0.157 -0.284,0.205 -0.122,0.048 -0.269,0.072 -0.439,0.073"
             style="fill:#004080;fill-opacity:1;fill-rule:nonzero;stroke:none"
             id="path78" />
        </g>
        <path
           d="m 46.79,1.798 h 0.458 V 4.189 H 46.79 Z M 44.729,2.696 45.153,3.7 45.569,2.696 Z m 1.216,-0.898 h 0.493 L 45.402,4.189 H 44.928 L 43.879,1.798 h 0.475 l 0.211,0.506 h 1.168 z"
           style="fill:#004080;fill-opacity:1;fill-rule:nonzero;stroke:none"
           id="path80" />
        <g
           id="g82"
           transform="translate(42.4023,3.6152)">
          <path
             d="M 0,0 V 0.182 C 0,0.24 0.012,0.284 0.036,0.314 0.061,0.346 0.098,0.361 0.147,0.361 0.198,0.361 0.236,0.346 0.261,0.314 0.285,0.284 0.298,0.24 0.298,0.182 V 0 Z M 0.671,0.526 0.404,0.349 C 0.382,0.401 0.349,0.44 0.305,0.468 0.26,0.495 0.206,0.508 0.143,0.509 0.083,0.508 0.033,0.496 -0.008,0.47 -0.05,0.445 -0.081,0.408 -0.103,0.359 -0.124,0.311 -0.135,0.251 -0.135,0.182 V -0.155 H 0.671 V 0 H 0.434 v 0.182 0.014 c 0,0.005 0,0.01 -0.001,0.015 L 0.671,0.35 Z m -0.672,-1.265 c 0,0.037 0.007,0.072 0.021,0.104 0.013,0.032 0.032,0.062 0.056,0.086 0.025,0.025 0.053,0.044 0.086,0.059 0.032,0.013 0.067,0.02 0.107,0.02 0.038,0 0.073,-0.007 0.106,-0.02 C 0.407,-0.505 0.437,-0.524 0.461,-0.549 0.486,-0.573 0.505,-0.603 0.519,-0.635 0.532,-0.667 0.54,-0.702 0.54,-0.739 0.54,-0.776 0.532,-0.812 0.519,-0.845 0.505,-0.877 0.486,-0.906 0.461,-0.932 0.437,-0.957 0.407,-0.977 0.375,-0.991 0.342,-1.006 0.307,-1.013 0.269,-1.013 c -0.04,0 -0.075,0.007 -0.107,0.022 -0.033,0.013 -0.061,0.034 -0.086,0.059 -0.024,0.025 -0.043,0.054 -0.056,0.087 -0.014,0.033 -0.021,0.069 -0.021,0.106 M -0.14,-0.741 c 0,-0.049 0.007,-0.095 0.021,-0.138 0.013,-0.044 0.031,-0.083 0.056,-0.118 0.025,-0.036 0.053,-0.066 0.087,-0.093 0.034,-0.025 0.072,-0.046 0.113,-0.059 0.041,-0.015 0.085,-0.022 0.132,-0.022 0.045,0 0.089,0.007 0.13,0.022 0.041,0.013 0.08,0.034 0.114,0.059 0.034,0.027 0.063,0.057 0.088,0.093 0.024,0.035 0.044,0.074 0.057,0.118 0.013,0.043 0.02,0.089 0.02,0.138 0,0.049 -0.007,0.095 -0.02,0.137 -0.013,0.043 -0.033,0.083 -0.057,0.119 -0.025,0.036 -0.054,0.066 -0.088,0.092 -0.034,0.026 -0.073,0.046 -0.114,0.06 -0.041,0.014 -0.085,0.021 -0.13,0.021 -0.047,0 -0.091,-0.007 -0.132,-0.021 C 0.096,-0.347 0.059,-0.367 0.024,-0.393 -0.01,-0.419 -0.038,-0.449 -0.062,-0.485 -0.087,-0.521 -0.106,-0.561 -0.119,-0.604 -0.133,-0.646 -0.14,-0.692 -0.14,-0.741 m 0.005,-1.06 h 0.806 v 0.155 H 0.353 V -1.28 H 0.218 V -1.646 H 0 v 0.401 l -0.135,0.001 z"
             style="fill:#004080;fill-opacity:1;fill-rule:nonzero;stroke:none"
             id="path84" />
        </g>
        <g
           id="g86"
           transform="translate(41.1074,3.5605)">
          <path
             d="M 0,0 0.185,0.396 C 0.107,0.446 0.023,0.49 -0.07,0.528 -0.164,0.566 -0.262,0.596 -0.365,0.617 -0.468,0.638 -0.573,0.648 -0.68,0.648 -0.813,0.648 -0.937,0.632 -1.045,0.601 -1.154,0.569 -1.249,0.522 -1.328,0.463 -1.407,0.403 -1.467,0.332 -1.51,0.248 -1.552,0.164 -1.573,0.07 -1.574,-0.034 c 0.001,-0.107 0.019,-0.195 0.055,-0.27 0.036,-0.074 0.084,-0.135 0.146,-0.186 0.061,-0.049 0.129,-0.091 0.205,-0.124 0.076,-0.033 0.155,-0.062 0.236,-0.085 0.081,-0.025 0.16,-0.047 0.236,-0.07 0.076,-0.021 0.144,-0.046 0.206,-0.074 0.06,-0.028 0.109,-0.062 0.145,-0.103 0.035,-0.04 0.054,-0.093 0.055,-0.155 0,-0.055 -0.017,-0.103 -0.05,-0.141 -0.032,-0.04 -0.079,-0.07 -0.139,-0.09 -0.061,-0.021 -0.135,-0.031 -0.221,-0.031 -0.086,0 -0.178,0.014 -0.273,0.043 -0.096,0.027 -0.192,0.068 -0.287,0.121 -0.094,0.052 -0.183,0.114 -0.266,0.187 l -0.192,-0.385 c 0.086,-0.077 0.184,-0.144 0.291,-0.202 0.109,-0.056 0.224,-0.1 0.345,-0.132 0.122,-0.033 0.247,-0.048 0.375,-0.049 0.133,0 0.254,0.016 0.365,0.048 0.111,0.032 0.208,0.078 0.29,0.138 0.082,0.061 0.146,0.135 0.192,0.222 0.045,0.087 0.068,0.187 0.068,0.299 0,0.106 -0.018,0.198 -0.054,0.273 -0.036,0.074 -0.083,0.138 -0.144,0.19 -0.061,0.05 -0.129,0.093 -0.205,0.128 -0.076,0.034 -0.155,0.064 -0.236,0.088 -0.081,0.025 -0.159,0.049 -0.235,0.072 -0.076,0.022 -0.145,0.048 -0.206,0.076 -0.061,0.027 -0.109,0.061 -0.145,0.102 -0.036,0.04 -0.054,0.09 -0.055,0.151 0.001,0.049 0.015,0.09 0.045,0.123 0.028,0.034 0.069,0.059 0.123,0.076 0.052,0.018 0.115,0.025 0.187,0.025 0.062,0 0.133,-0.007 0.211,-0.025 C -0.427,0.188 -0.345,0.162 -0.259,0.128 -0.172,0.094 -0.086,0.051 0,0 m -2.207,0 0.185,0.396 C -2.1,0.446 -2.185,0.49 -2.278,0.528 -2.371,0.566 -2.469,0.596 -2.572,0.617 -2.676,0.638 -2.78,0.648 -2.887,0.648 -3.021,0.648 -3.144,0.632 -3.253,0.601 -3.362,0.569 -3.456,0.522 -3.535,0.463 -3.614,0.403 -3.675,0.332 -3.717,0.248 -3.76,0.164 -3.781,0.07 -3.781,-0.034 c 0.001,-0.107 0.018,-0.195 0.054,-0.27 0.037,-0.074 0.084,-0.135 0.146,-0.186 0.061,-0.049 0.13,-0.091 0.206,-0.124 0.076,-0.033 0.154,-0.062 0.235,-0.085 0.081,-0.025 0.161,-0.047 0.236,-0.07 0.077,-0.021 0.144,-0.046 0.206,-0.074 0.061,-0.028 0.109,-0.062 0.145,-0.103 0.036,-0.04 0.055,-0.093 0.056,-0.155 0,-0.055 -0.017,-0.103 -0.05,-0.141 -0.032,-0.04 -0.079,-0.07 -0.14,-0.09 -0.061,-0.021 -0.134,-0.031 -0.22,-0.031 -0.087,0 -0.178,0.014 -0.274,0.043 -0.095,0.027 -0.191,0.068 -0.287,0.121 -0.094,0.052 -0.182,0.114 -0.265,0.187 l -0.192,-0.385 c 0.086,-0.077 0.183,-0.144 0.291,-0.202 0.109,-0.056 0.223,-0.1 0.345,-0.132 0.122,-0.033 0.247,-0.048 0.375,-0.049 0.132,0 0.254,0.016 0.364,0.048 0.112,0.032 0.208,0.078 0.291,0.138 0.082,0.061 0.146,0.135 0.192,0.222 0.045,0.087 0.068,0.187 0.068,0.299 0,0.106 -0.018,0.198 -0.054,0.273 -0.036,0.074 -0.084,0.138 -0.144,0.19 -0.061,0.05 -0.129,0.093 -0.205,0.128 -0.077,0.034 -0.155,0.064 -0.236,0.088 -0.081,0.025 -0.16,0.049 -0.236,0.072 -0.075,0.022 -0.144,0.048 -0.205,0.076 -0.062,0.027 -0.109,0.061 -0.146,0.102 -0.036,0.04 -0.054,0.09 -0.054,0.151 0,0.049 0.014,0.09 0.044,0.123 0.029,0.034 0.07,0.059 0.123,0.076 0.052,0.018 0.115,0.025 0.187,0.025 0.063,0 0.133,-0.007 0.212,-0.025 C -2.635,0.188 -2.552,0.162 -2.466,0.128 -2.38,0.094 -2.293,0.051 -2.207,0 M -6.03,0.628 v -2.391 h 1.793 v 0.4 h -1.335 v 0.601 h 1.161 v 0.4 h -1.161 v 0.591 h 1.294 v 0.399 z m -2.761,0 v -2.391 h 0.448 v 1.633 l 1.229,-1.633 H -6.68 V 0.628 H -7.124 V -1.008 L -8.357,0.628 Z M -9.898,-1.763 H -9.44 V 0.628 H -9.898 Z M -10.603,0 l 0.184,0.396 c -0.076,0.05 -0.161,0.094 -0.255,0.132 -0.093,0.038 -0.191,0.068 -0.295,0.089 -0.102,0.021 -0.208,0.031 -0.313,0.031 -0.135,0 -0.257,-0.016 -0.366,-0.047 -0.11,-0.032 -0.205,-0.079 -0.283,-0.138 -0.08,-0.06 -0.139,-0.131 -0.182,-0.215 -0.042,-0.084 -0.064,-0.178 -0.065,-0.282 0.001,-0.107 0.02,-0.195 0.056,-0.27 0.035,-0.074 0.084,-0.135 0.145,-0.186 0.061,-0.049 0.129,-0.091 0.206,-0.124 0.077,-0.033 0.155,-0.062 0.236,-0.085 0.081,-0.025 0.159,-0.047 0.235,-0.07 0.076,-0.021 0.145,-0.046 0.206,-0.074 0.061,-0.028 0.11,-0.062 0.146,-0.103 0.035,-0.04 0.054,-0.093 0.054,-0.155 0,-0.055 -0.016,-0.103 -0.048,-0.141 -0.034,-0.04 -0.079,-0.07 -0.141,-0.09 -0.061,-0.021 -0.134,-0.031 -0.22,-0.031 -0.087,0 -0.177,0.014 -0.273,0.043 -0.097,0.027 -0.193,0.068 -0.287,0.121 -0.095,0.052 -0.184,0.114 -0.267,0.187 l -0.191,-0.385 c 0.086,-0.077 0.183,-0.144 0.291,-0.202 0.108,-0.056 0.223,-0.1 0.344,-0.132 0.123,-0.033 0.248,-0.048 0.375,-0.049 0.133,0 0.254,0.016 0.366,0.048 0.111,0.032 0.208,0.078 0.291,0.138 0.081,0.061 0.145,0.135 0.19,0.222 0.045,0.087 0.068,0.187 0.069,0.299 -0.001,0.106 -0.018,0.198 -0.053,0.273 -0.036,0.074 -0.084,0.138 -0.146,0.19 -0.06,0.05 -0.129,0.093 -0.204,0.128 -0.076,0.034 -0.155,0.064 -0.236,0.088 -0.081,0.025 -0.159,0.049 -0.236,0.072 -0.076,0.022 -0.143,0.048 -0.205,0.076 -0.061,0.027 -0.11,0.061 -0.145,0.102 -0.036,0.04 -0.055,0.09 -0.056,0.151 10e-4,0.049 0.016,0.09 0.045,0.123 0.028,0.034 0.07,0.059 0.123,0.076 0.053,0.018 0.115,0.025 0.188,0.025 0.062,0 0.132,-0.007 0.211,-0.025 0.079,-0.018 0.161,-0.044 0.247,-0.078 0.087,-0.034 0.173,-0.077 0.259,-0.128 m -3.758,-0.766 v 1.394 h -0.457 v -1.394 c 0,-0.157 0.024,-0.298 0.074,-0.423 0.049,-0.125 0.12,-0.233 0.212,-0.321 0.093,-0.089 0.204,-0.156 0.335,-0.203 0.13,-0.046 0.277,-0.069 0.44,-0.07 0.218,10e-4 0.404,0.042 0.561,0.124 0.156,0.082 0.276,0.199 0.36,0.35 0.085,0.152 0.127,0.333 0.128,0.543 v 1.394 h -0.458 v -1.394 c 0,-0.128 -0.024,-0.237 -0.072,-0.328 -0.048,-0.09 -0.116,-0.159 -0.204,-0.207 -0.088,-0.048 -0.193,-0.072 -0.315,-0.072 -0.121,0 -0.226,0.024 -0.317,0.073 -0.091,0.048 -0.16,0.118 -0.21,0.208 -0.051,0.091 -0.076,0.199 -0.077,0.326 m -1.856,-0.6 h -0.58 v 0.632 h 0.58 c 0.098,0.001 0.181,-0.011 0.25,-0.037 0.07,-0.024 0.122,-0.06 0.159,-0.107 0.037,-0.046 0.056,-0.101 0.056,-0.168 0,-0.067 -0.019,-0.127 -0.056,-0.175 -0.037,-0.048 -0.089,-0.085 -0.159,-0.109 -0.069,-0.025 -0.152,-0.038 -0.25,-0.036 m 0,1.017 h -0.58 v 0.58 h 0.58 c 0.079,0.002 0.148,-0.008 0.203,-0.031 0.057,-0.021 0.1,-0.054 0.13,-0.096 0.031,-0.043 0.046,-0.095 0.046,-0.156 0,-0.062 -0.015,-0.116 -0.046,-0.16 -0.03,-0.045 -0.073,-0.078 -0.13,-0.101 -0.055,-0.024 -0.124,-0.036 -0.203,-0.036 m 0.024,0.977 h -1.062 v -2.391 h 1.093 c 0.183,10e-4 0.341,0.028 0.473,0.08 0.13,0.053 0.233,0.128 0.304,0.227 0.071,0.098 0.107,0.216 0.108,0.352 -0.001,0.107 -0.022,0.202 -0.062,0.286 -0.04,0.084 -0.099,0.152 -0.174,0.207 -0.076,0.055 -0.167,0.092 -0.273,0.112 0.087,0.022 0.161,0.058 0.223,0.107 0.062,0.05 0.11,0.111 0.143,0.183 0.033,0.071 0.05,0.151 0.05,0.239 0,0.124 -0.033,0.23 -0.1,0.32 -0.066,0.088 -0.161,0.157 -0.284,0.205 -0.122,0.048 -0.268,0.072 -0.439,0.073"
             style="fill:#004080;fill-opacity:1;fill-rule:nonzero;stroke:none"
             id="path88" />
        </g>
        <g
           id="g90"
           transform="translate(14.0337,7.7563)">
          <path
             d="m 0,0 h -4.581 c 0.341,-0.219 0.593,-0.52 0.72,-0.905 h 3.81 c 0.215,0.003 0.398,-0.026 0.55,-0.085 0.152,-0.06 0.269,-0.147 0.35,-0.262 0.083,-0.115 0.124,-0.256 0.124,-0.421 0,-0.171 -0.041,-0.316 -0.124,-0.436 C 0.768,-2.228 0.651,-2.319 0.499,-2.382 0.347,-2.444 0.164,-2.476 -0.051,-2.476 H -1.603 C -1.63,-2.517 -1.659,-2.557 -1.69,-2.596 -1.74,-2.658 -1.793,-2.717 -1.852,-2.772 l 0.002,-0.003 c 0.122,-0.087 0.23,-0.186 0.325,-0.297 0.075,-0.09 0.142,-0.187 0.199,-0.291 h 1.275 c 0.262,0 0.487,-0.031 0.674,-0.098 0.186,-0.068 0.33,-0.164 0.429,-0.29 0.022,-0.028 0.041,-0.055 0.057,-0.084 l 0.369,0.837 c -0.154,0.081 -0.328,0.138 -0.522,0.172 0.217,0.056 0.404,0.145 0.56,0.269 0.134,0.107 0.241,0.234 0.323,0.381 l 0.091,0.209 c 0.049,0.145 0.074,0.302 0.076,0.473 C 2.004,-1.183 1.921,-0.915 1.761,-0.693 1.599,-0.471 1.368,-0.3 1.069,-0.181 0.771,-0.062 0.414,-0.002 0,0"
             style="fill:#004080;fill-opacity:1;fill-rule:nonzero;stroke:none"
             id="path92" />
        </g>
        <g
           id="g94"
           transform="translate(15.4331,3.6328)">
          <path
             d="M 0,0 1.814,4.131 H 2.847 L 5.485,-1.844 H 4.435 L 2.362,3.038 1.131,0.125 C 0.811,-0.631 0.667,-1.315 -0.176,-1.653 -0.501,-1.784 -0.889,-1.852 -1.34,-1.852 h -2.066 c 0.06,0.037 0.117,0.075 0.172,0.116 0.157,0.118 0.292,0.255 0.402,0.409 l 0.002,0.002 c 0.084,0.118 0.153,0.244 0.206,0.378 h 0.463 0.71 c 0.263,-0.002 0.488,0.03 0.675,0.097 C -0.305,-0.681 -0.191,-0.435 0,0"
             style="fill:#004080;fill-opacity:1;fill-rule:nonzero;stroke:none"
             id="path96" />
        </g>
        <g
           id="g98"
           transform="translate(2.4951,5.1372)">
          <path
             d="m 0,0 c -0.02,0.027 -0.042,0.052 -0.066,0.076 l -0.001,0.001 c -0.135,0.135 -0.322,0.219 -0.528,0.219 -0.206,0 -0.393,-0.084 -0.529,-0.219 -0.135,-0.136 -0.219,-0.323 -0.219,-0.529 0,-0.205 0.084,-0.392 0.219,-0.528 h 0.001 v -0.001 c 0.136,-0.136 0.323,-0.22 0.528,-0.22 0.207,0 0.394,0.085 0.529,0.22 0.024,0.024 0.047,0.049 0.067,0.076 H 2.646 4.498 5.354 L 4.992,0 H 4.881 3.892 Z m -0.595,-0.239 c -0.058,0 -0.112,-0.024 -0.151,-0.063 -0.038,-0.038 -0.062,-0.091 -0.062,-0.15 0,-0.06 0.024,-0.113 0.061,-0.151 l 0.001,-0.001 c 0.038,-0.038 0.092,-0.061 0.151,-0.061 0.059,0 0.113,0.024 0.151,0.062 0.038,0.039 0.063,0.092 0.063,0.151 0,0.059 -0.024,0.113 -0.063,0.151 -0.038,0.038 -0.092,0.062 -0.151,0.062 M 1.578,1.332 C 1.519,1.332 1.465,1.308 1.427,1.269 1.389,1.23 1.365,1.177 1.365,1.118 1.365,1.059 1.388,1.005 1.426,0.968 L 1.427,0.966 C 1.465,0.929 1.518,0.905 1.578,0.905 c 0.059,0 0.112,0.024 0.151,0.063 0.038,0.038 0.062,0.092 0.062,0.15 0,0.06 -0.024,0.113 -0.062,0.152 C 1.69,1.308 1.637,1.332 1.578,1.332 M 1.963,-2.452 H 1.358 C 1.338,-2.478 1.315,-2.503 1.292,-2.528 1.156,-2.664 0.969,-2.747 0.763,-2.747 c -0.206,0 -0.392,0.083 -0.528,0.219 l -10e-4,10e-4 v 0 c -0.136,0.136 -0.219,0.322 -0.219,0.528 0,0.207 0.083,0.394 0.219,0.529 0.135,0.136 0.322,0.22 0.529,0.22 0.206,0 0.392,-0.084 0.528,-0.22 L 1.292,-1.471 C 1.315,-1.495 1.337,-1.52 1.358,-1.546 H 2.362 3.371 3.379 L 3,-2.443 2.997,-2.452 2.614,-3.356 H 1.563 Z M 6.227,-2.088 4.687,1.543 4.316,0.666 H 3.84 3.339 2.174 C 2.153,0.639 2.131,0.613 2.107,0.589 1.972,0.454 1.785,0.37 1.578,0.37 1.373,0.37 1.186,0.454 1.05,0.589 L 1.049,0.59 v 0 C 0.914,0.727 0.83,0.913 0.83,1.118 c 0,0.207 0.084,0.394 0.219,0.529 0.136,0.136 0.323,0.219 0.529,0.219 0.206,0 0.392,-0.083 0.527,-0.219 L 2.107,1.646 C 2.13,1.623 2.152,1.597 2.173,1.571 H 3.739 L 4.201,2.619 H 5.234 L 7.302,-2.088 Z M 0.763,-1.786 C 0.704,-1.786 0.65,-1.81 0.612,-1.848 0.573,-1.886 0.55,-1.94 0.55,-1.999 c 0,-0.059 0.023,-0.113 0.061,-0.151 h 0.001 c 0.038,-0.038 0.091,-0.061 0.151,-0.061 0.058,0 0.112,0.023 0.151,0.061 0.038,0.039 0.062,0.092 0.062,0.151 0,0.059 -0.024,0.113 -0.062,0.151 -0.039,0.039 -0.092,0.062 -0.151,0.062"
             style="fill:#004080;fill-opacity:1;fill-rule:evenodd;stroke:none"
             id="path100" />
        </g>
        <g
           id="g102"
           transform="translate(11.1895,6.4502)">
          <path
             d="m 0,0 c 0.06,-0.104 0.089,-0.227 0.089,-0.367 0,-0.171 -0.041,-0.316 -0.123,-0.436 -0.082,-0.119 -0.198,-0.21 -0.35,-0.273 -0.153,-0.062 -0.336,-0.093 -0.551,-0.093 H -1.703 -1.93 l 0.388,-0.888 h 0.607 c 0.263,0.003 0.488,-0.03 0.674,-0.098 0.187,-0.067 0.33,-0.164 0.43,-0.29 0.1,-0.127 0.149,-0.28 0.151,-0.457 -0.002,-0.185 -0.051,-0.343 -0.151,-0.472 -0.1,-0.13 -0.243,-0.227 -0.43,-0.293 -0.186,-0.067 -0.411,-0.1 -0.674,-0.098 h -0.71 -0.826 -2.778 l -0.383,-0.904 h 4.808 c 0.451,0 0.839,0.067 1.164,0.198 0.324,0.13 0.573,0.317 0.748,0.56 0.175,0.245 0.263,0.538 0.265,0.881 -0.002,0.268 -0.053,0.508 -0.154,0.718 -0.101,0.209 -0.248,0.383 -0.438,0.518 -0.191,0.137 -0.42,0.228 -0.689,0.274 0.218,0.056 0.404,0.145 0.561,0.27 0.156,0.125 0.277,0.277 0.361,0.458 0.084,0.18 0.127,0.381 0.128,0.604 0,0.064 -0.004,0.127 -0.011,0.188 z m -0.883,1.306 h -2.129 l 0.396,-0.905 h 0.847 0.066 0.768 0.06 H 1 C 0.967,0.476 0.926,0.546 0.877,0.613 0.715,0.835 0.485,1.006 0.186,1.125 -0.112,1.245 -0.47,1.304 -0.883,1.306"
             style="fill:#004080;fill-opacity:1;fill-rule:nonzero;stroke:none"
             id="path104" />
        </g>
        <path
           d="m 22.327,0.747 h -0.111 v 8.051 h 0.111 z"
           style="fill:#004080;fill-opacity:1;fill-rule:nonzero;stroke:none"
           id="path106" />
      </g>
    </g>
  </g>
</svg>
